<svg xmlns="http://www.w3.org/2000/svg" xmlns:xlink="http://www.w3.org/1999/xlink" width="64" zoomAndPan="magnify" viewBox="0 0 48 48" height="64" preserveAspectRatio="xMidYMid meet" version="1.0"><defs><clipPath id="4582ec5456"><path d="M 0.492188 0 L 31.988281 0 L 31.988281 31.59375 L 0.492188 31.59375 Z M 0.492188 0 " clip-rule="nonzero"/></clipPath><clipPath id="e1cc7e9603"><path d="M 15.507812 15.140625 L 47.007812 15.140625 L 47.007812 46.730469 L 15.507812 46.730469 Z M 15.507812 15.140625 " clip-rule="nonzero"/></clipPath></defs><g clip-path="url(#4582ec5456)"><path fill="#9865ff" d="M 12.246094 -2.9375 L 21.0625 -2.9375 L 21.0625 2.9375 L 12.246094 2.9375 Z M 24 -2.9375 L 34.925781 -2.9375 L 34.925781 0.828125 L 29.050781 0.828125 L 29.050781 0 L 31.988281 0 L 31.988281 2.9375 L 24 2.9375 Z M 34.925781 3.769531 L 34.925781 12.585938 L 29.050781 12.585938 L 29.050781 3.769531 Z M 34.925781 15.523438 L 34.925781 24.339844 L 29.050781 24.339844 L 29.050781 15.523438 Z M 34.925781 27.277344 L 34.925781 34.679688 L 27.632812 34.679688 L 27.632812 28.800781 L 31.988281 28.800781 L 31.988281 31.742188 L 29.050781 31.742188 L 29.050781 27.277344 Z M 24.695312 34.679688 L 15.878906 34.679688 L 15.878906 28.800781 L 24.695312 28.800781 Z M 12.941406 34.679688 L 4.125 34.679688 L 4.125 28.800781 L 12.941406 28.800781 Z M 1.183594 34.679688 L -2.449219 34.679688 L -2.449219 23.617188 L 3.429688 23.617188 L 3.429688 31.742188 L 0.492188 31.742188 L 0.492188 28.800781 L 1.183594 28.800781 Z M -2.449219 20.679688 L -2.449219 11.863281 L 3.429688 11.863281 L 3.429688 20.679688 Z M -2.449219 8.925781 L -2.449219 0.109375 L 3.429688 0.109375 L 3.429688 8.925781 Z M 0.492188 -2.9375 L 9.308594 -2.9375 L 9.308594 2.9375 L 0.492188 2.9375 Z M 0.492188 -2.9375 " fill-opacity="1" fill-rule="nonzero"/></g><g clip-path="url(#e1cc7e9603)"><path stroke-linecap="butt" transform="matrix(0.734694, 0, 0, 0.734694, 15.509267, 15.140042)" fill="none" stroke-linejoin="miter" d="M -0.00198006 0.000793177 L 42.873021 0.000793177 L 42.873021 43.205439 L -0.00198006 43.205439 Z M -0.00198006 0.000793177 " stroke="#9865ff" stroke-width="8" stroke-opacity="1" stroke-miterlimit="4"/></g></svg>