<svg xmlns="http://www.w3.org/2000/svg" xmlns:xlink="http://www.w3.org/1999/xlink" width="66" zoomAndPan="magnify" viewBox="0 0 49.5 38.999999" height="52" preserveAspectRatio="xMidYMid meet" version="1.0"><defs><filter x="0%" y="0%" width="100%" height="100%" id="4afcd9997c"><feColorMatrix values="0 0 0 0 1 0 0 0 0 1 0 0 0 0 1 0 0 0 1 0" color-interpolation-filters="sRGB"/></filter><clipPath id="669d4c0245"><path d="M 0 0.195312 L 49 0.195312 L 49 38.804688 L 0 38.804688 Z M 0 0.195312 " clip-rule="nonzero"/></clipPath><clipPath id="8b7cb42c68"><path d="M 0 26.699219 L 11.386719 26.699219 L 11.386719 38.085938 L 0 38.085938 Z M 0 26.699219 " clip-rule="nonzero"/></clipPath><clipPath id="90d0f7d8c4"><path d="M 5.695312 26.699219 C 2.550781 26.699219 0 29.25 0 32.394531 C 0 35.539062 2.550781 38.085938 5.695312 38.085938 C 8.839844 38.085938 11.386719 35.539062 11.386719 32.394531 C 11.386719 29.25 8.839844 26.699219 5.695312 26.699219 Z M 5.695312 26.699219 " clip-rule="nonzero"/></clipPath><clipPath id="2410478af7"><path d="M 0 0.699219 L 11.386719 0.699219 L 11.386719 12.085938 L 0 12.085938 Z M 0 0.699219 " clip-rule="nonzero"/></clipPath><clipPath id="5fb8f4b988"><path d="M 5.695312 0.699219 C 2.550781 0.699219 0 3.25 0 6.394531 C 0 9.539062 2.550781 12.085938 5.695312 12.085938 C 8.839844 12.085938 11.386719 9.539062 11.386719 6.394531 C 11.386719 3.25 8.839844 0.699219 5.695312 0.699219 Z M 5.695312 0.699219 " clip-rule="nonzero"/></clipPath><clipPath id="991b548155"><rect x="0" width="12" y="0" height="13"/></clipPath><clipPath id="651da5de90"><path d="M 37.464844 26.699219 L 48.851562 26.699219 L 48.851562 38.085938 L 37.464844 38.085938 Z M 37.464844 26.699219 " clip-rule="nonzero"/></clipPath><clipPath id="d51bc2ac32"><path d="M 43.160156 26.699219 C 40.015625 26.699219 37.464844 29.25 37.464844 32.394531 C 37.464844 35.539062 40.015625 38.085938 43.160156 38.085938 C 46.304688 38.085938 48.851562 35.539062 48.851562 32.394531 C 48.851562 29.25 46.304688 26.699219 43.160156 26.699219 Z M 43.160156 26.699219 " clip-rule="nonzero"/></clipPath><clipPath id="46d93b7ebb"><path d="M 0.464844 0.699219 L 11.851562 0.699219 L 11.851562 12.085938 L 0.464844 12.085938 Z M 0.464844 0.699219 " clip-rule="nonzero"/></clipPath><clipPath id="9c048c945f"><path d="M 6.160156 0.699219 C 3.015625 0.699219 0.464844 3.25 0.464844 6.394531 C 0.464844 9.539062 3.015625 12.085938 6.160156 12.085938 C 9.304688 12.085938 11.851562 9.539062 11.851562 6.394531 C 11.851562 3.25 9.304688 0.699219 6.160156 0.699219 Z M 6.160156 0.699219 " clip-rule="nonzero"/></clipPath><clipPath id="9ab956c940"><rect x="0" width="12" y="0" height="13"/></clipPath><clipPath id="bb663c4a8d"><path d="M 5 0.195312 L 18 0.195312 L 18 12 L 5 12 Z M 5 0.195312 " clip-rule="nonzero"/></clipPath><mask id="d1705ea49a"><g filter="url(#4afcd9997c)"><rect x="-10.89" width="71.28" fill="#000000" y="-8.58" height="56.159999" fill-opacity="0.35"/></g></mask><clipPath id="902121fbfc"><path d="M 0.695312 0.195312 L 12.082031 0.195312 L 12.082031 11.582031 L 0.695312 11.582031 Z M 0.695312 0.195312 " clip-rule="nonzero"/></clipPath><clipPath id="7c78f42837"><path d="M 6.386719 0.195312 C 3.242188 0.195312 0.695312 2.742188 0.695312 5.886719 C 0.695312 9.03125 3.242188 11.582031 6.386719 11.582031 C 9.53125 11.582031 12.082031 9.03125 12.082031 5.886719 C 12.082031 2.742188 9.53125 0.195312 6.386719 0.195312 Z M 6.386719 0.195312 " clip-rule="nonzero"/></clipPath><clipPath id="f9850303ce"><path d="M 0.695312 0.195312 L 12.082031 0.195312 L 12.082031 11.582031 L 0.695312 11.582031 Z M 0.695312 0.195312 " clip-rule="nonzero"/></clipPath><clipPath id="aa7000f252"><path d="M 6.386719 0.195312 C 3.242188 0.195312 0.695312 2.742188 0.695312 5.886719 C 0.695312 9.03125 3.242188 11.582031 6.386719 11.582031 C 9.53125 11.582031 12.082031 9.03125 12.082031 5.886719 C 12.082031 2.742188 9.53125 0.195312 6.386719 0.195312 Z M 6.386719 0.195312 " clip-rule="nonzero"/></clipPath><clipPath id="3758c26d85"><rect x="0" width="13" y="0" height="12"/></clipPath><clipPath id="a651ce612b"><rect x="0" width="13" y="0" height="12"/></clipPath><mask id="4afa2a3aa6"><g filter="url(#4afcd9997c)"><rect x="-10.89" width="71.28" fill="#000000" y="-8.58" height="56.159999" fill-opacity="0.35"/></g></mask><clipPath id="23bd1e0f74"><path d="M 0.226562 0.984375 L 6.878906 0.984375 L 6.878906 21.417969 L 0.226562 21.417969 Z M 0.226562 0.984375 " clip-rule="nonzero"/></clipPath><clipPath id="97bf0dd517"><rect x="0" width="7" y="0" height="22"/></clipPath><mask id="26689740c8"><g filter="url(#4afcd9997c)"><rect x="-10.89" width="71.28" fill="#000000" y="-8.58" height="56.159999" fill-opacity="0.35"/></g></mask><clipPath id="650c072447"><path d="M 0.0195312 0.796875 L 27.34375 0.796875 L 27.34375 24.082031 L 0.0195312 24.082031 Z M 0.0195312 0.796875 " clip-rule="nonzero"/></clipPath><clipPath id="1f269ff1e7"><rect x="0" width="28" y="0" height="25"/></clipPath><clipPath id="522a5ec8c5"><path d="M 33.09375 3.84375 L 44.480469 3.84375 L 44.480469 15.230469 L 33.09375 15.230469 Z M 33.09375 3.84375 " clip-rule="nonzero"/></clipPath><clipPath id="968c2e2406"><path d="M 38.785156 3.84375 C 35.640625 3.84375 33.09375 6.390625 33.09375 9.535156 C 33.09375 12.679688 35.640625 15.230469 38.785156 15.230469 C 41.929688 15.230469 44.480469 12.679688 44.480469 9.535156 C 44.480469 6.390625 41.929688 3.84375 38.785156 3.84375 Z M 38.785156 3.84375 " clip-rule="nonzero"/></clipPath><clipPath id="f523814326"><path d="M 0.09375 0.84375 L 11.480469 0.84375 L 11.480469 12.230469 L 0.09375 12.230469 Z M 0.09375 0.84375 " clip-rule="nonzero"/></clipPath><clipPath id="174f3f50b7"><path d="M 5.785156 0.84375 C 2.640625 0.84375 0.09375 3.390625 0.09375 6.535156 C 0.09375 9.679688 2.640625 12.230469 5.785156 12.230469 C 8.929688 12.230469 11.480469 9.679688 11.480469 6.535156 C 11.480469 3.390625 8.929688 0.84375 5.785156 0.84375 Z M 5.785156 0.84375 " clip-rule="nonzero"/></clipPath><clipPath id="92270792d1"><rect x="0" width="12" y="0" height="13"/></clipPath><clipPath id="92ad84b9be"><path d="M 0 0.195312 L 47 0.195312 L 47 38.210938 L 0 38.210938 Z M 0 0.195312 " clip-rule="nonzero"/></clipPath><clipPath id="4db2b40624"><path d="M 27 2 L 48.945312 2 L 48.945312 38.210938 L 27 38.210938 Z M 27 2 " clip-rule="nonzero"/></clipPath><clipPath id="0fc5a289df"><rect x="0" width="49" y="0" height="39"/></clipPath></defs><g clip-path="url(#669d4c0245)"><g transform="matrix(1, 0, 0, 1, 0, 0.000000000000004385)"><g clip-path="url(#0fc5a289df)"><g clip-path="url(#8b7cb42c68)"><g clip-path="url(#90d0f7d8c4)"><g transform="matrix(1, 0, 0, 1, 0, 26)"><g clip-path="url(#991b548155)"><g clip-path="url(#2410478af7)"><g clip-path="url(#5fb8f4b988)"><path fill="#c4ad52" d="M 0 0.699219 L 11.386719 0.699219 L 11.386719 12.085938 L 0 12.085938 Z M 0 0.699219 " fill-opacity="1" fill-rule="nonzero"/></g></g></g></g></g></g><g clip-path="url(#651da5de90)"><g clip-path="url(#d51bc2ac32)"><g transform="matrix(1, 0, 0, 1, 37, 26)"><g clip-path="url(#9ab956c940)"><g clip-path="url(#46d93b7ebb)"><g clip-path="url(#9c048c945f)"><path fill="#c4ad52" d="M 0.464844 0.699219 L 11.851562 0.699219 L 11.851562 12.085938 L 0.464844 12.085938 Z M 0.464844 0.699219 " fill-opacity="1" fill-rule="nonzero"/></g></g></g></g></g></g><g clip-path="url(#bb663c4a8d)"><g mask="url(#d1705ea49a)"><g transform="matrix(1, 0, 0, 1, 5, 0.000000000000004385)"><g clip-path="url(#a651ce612b)"><g clip-path="url(#902121fbfc)"><g clip-path="url(#7c78f42837)"><g transform="matrix(1, 0, 0, 1, -0.000000000000000888, 0.000000000000004385)"><g clip-path="url(#3758c26d85)"><g clip-path="url(#f9850303ce)"><g clip-path="url(#aa7000f252)"><path fill="#c4ad52" d="M 0.695312 0.195312 L 12.082031 0.195312 L 12.082031 11.582031 L 0.695312 11.582031 Z M 0.695312 0.195312 " fill-opacity="1" fill-rule="nonzero"/></g></g></g></g></g></g></g></g></g></g><g mask="url(#4afa2a3aa6)"><g transform="matrix(1, 0, 0, 1, 5, 8)"><g clip-path="url(#97bf0dd517)"><g clip-path="url(#23bd1e0f74)"><path stroke-linecap="butt" transform="matrix(0.466733, -2.172652, 2.172652, 0.466733, 0.793678, 18.579471)" fill="none" stroke-linejoin="miter" d="M 0.0000448553 0.499485 L 7.073014 0.499297 " stroke="#c4ad52" stroke-width="1" stroke-opacity="1" stroke-miterlimit="4"/></g></g></g></g><g mask="url(#26689740c8)"><g transform="matrix(1, 0, 0, 1, 14, 7)"><g clip-path="url(#1f269ff1e7)"><g clip-path="url(#650c072447)"><path stroke-linecap="butt" transform="matrix(-1.706413, -1.423521, 1.423521, -1.706413, 24.055085, 22.59151)" fill="none" stroke-linejoin="miter" d="M 0.000428219 0.499656 L 13.495337 0.500037 " stroke="#c4ad52" stroke-width="1" stroke-opacity="1" stroke-miterlimit="4"/></g></g></g></g><g clip-path="url(#522a5ec8c5)"><g clip-path="url(#968c2e2406)"><g transform="matrix(1, 0, 0, 1, 33, 3)"><g clip-path="url(#92270792d1)"><g clip-path="url(#f523814326)"><g clip-path="url(#174f3f50b7)"><path fill="#c4ad52" d="M 0.09375 0.84375 L 11.480469 0.84375 L 11.480469 12.230469 L 0.09375 12.230469 Z M 0.09375 0.84375 " fill-opacity="1" fill-rule="nonzero"/></g></g></g></g></g></g><g clip-path="url(#92ad84b9be)"><path stroke-linecap="butt" transform="matrix(-1.828475, 1.262908, -1.262908, -1.828475, 34.722402, 13.689404)" fill="none" stroke-linejoin="miter" d="M -0.0000331818 0.500922 L 12.974423 0.500281 " stroke="#c4ad52" stroke-width="1" stroke-opacity="1" stroke-miterlimit="4"/></g><g clip-path="url(#4db2b40624)"><path stroke-linecap="butt" transform="matrix(0.417512, 2.182645, -2.182645, 0.417512, 40.944708, 14.923825)" fill="none" stroke-linejoin="miter" d="M -0.0000517298 0.500825 L 5.345947 0.499745 " stroke="#c4ad52" stroke-width="1" stroke-opacity="1" stroke-miterlimit="4"/></g></g></g></g></svg>